<svg width="19" height="19" viewBox="0 0 19 19" fill="none" xmlns="http://www.w3.org/2000/svg">
<path d="M7.1825 15.9017C7.04 15.9017 6.8975 15.8492 6.785 15.7367C6.5675 15.5192 6.28244 15.1167 6.49994 14.8992L11.4999 9.89917C11.8599 9.53917 11.8599 9.25917 11.4999 8.89917L6.49994 3.89917C6.28244 3.68167 6.5675 3.27918 6.785 3.06168C7.0025 2.84418 7.3625 2.84418 7.58 3.06168L12.47 7.95168C12.8525 8.33419 13.07 8.85169 13.07 9.39919C13.07 9.94669 12.86 10.4642 12.47 10.8467L7.58 15.7367C7.4675 15.8417 7.325 15.9017 7.1825 15.9017Z" fill="#518BBB"/>
</svg>
